<svg xmlns="http://www.w3.org/2000/svg" width="1000" height="650" viewBox="0 0 1000 650">
<rect x="0.00" y="0.00" width="1000.00" height="650.00" fill="#ffffff"/>
<text x="500.00" y="38.00" font-family="Arial, sans-serif" font-size="21" font-weight="700" text-anchor="middle">max3: honest FPR and CP upper bound</text>
<line x1="95.00" y1="90.00" x2="95.00" y2="560.00" stroke="#222222" stroke-width="1.00"/>
<line x1="95.00" y1="560.00" x2="955.00" y2="560.00" stroke="#222222" stroke-width="1.00"/>
<text x="500.00" y="622.00" font-family="Arial, sans-serif" font-size="15" font-weight="400" text-anchor="middle">threshold</text>
<text x="24" y="325.00" font-family="Arial, sans-serif" font-size="15" text-anchor="middle" transform="rotate(-90 24 325.00)">rate</text>
<line x1="95.00" y1="555.52" x2="955.00" y2="555.52" stroke="#777777" stroke-width="1.00" stroke-dasharray="6 5"/>
<text x="950.00" y="549.52" font-family="Arial, sans-serif" font-size="12" font-weight="400" text-anchor="end">1% target</text>
<polyline points="95.00,112.38 202.50,339.45 310.00,499.46 417.50,526.02 525.00,541.10 632.50,544.70 740.00,552.57 847.50,557.07 955.00,558.87" fill="none" stroke="#226f75" stroke-width="3"/>
<line x1="110.00" y1="130.00" x2="138.00" y2="130.00" stroke="#226f75" stroke-width="3.00"/>
<text x="146.00" y="134.00" font-family="Arial, sans-serif" font-size="12" font-weight="400" text-anchor="start">Observed FPR</text>
<polyline points="95.00,112.38 202.50,332.91 310.00,494.83 417.50,522.36 525.00,538.24 632.50,542.09 740.00,550.65 847.50,555.74 955.00,557.92" fill="none" stroke="#d0634b" stroke-width="3"/>
<line x1="110.00" y1="108.00" x2="138.00" y2="108.00" stroke="#d0634b" stroke-width="3.00"/>
<text x="146.00" y="112.00" font-family="Arial, sans-serif" font-size="12" font-weight="400" text-anchor="start">CP upper, delta=10%</text>
<text x="95.00" y="584.00" font-family="Arial, sans-serif" font-size="11" font-weight="400" text-anchor="middle">1</text>
<text x="267.00" y="584.00" font-family="Arial, sans-serif" font-size="11" font-weight="400" text-anchor="middle">2.6</text>
<text x="439.00" y="584.00" font-family="Arial, sans-serif" font-size="11" font-weight="400" text-anchor="middle">4.2</text>
<text x="611.00" y="584.00" font-family="Arial, sans-serif" font-size="11" font-weight="400" text-anchor="middle">5.8</text>
<text x="783.00" y="584.00" font-family="Arial, sans-serif" font-size="11" font-weight="400" text-anchor="middle">7.4</text>
<text x="955.00" y="584.00" font-family="Arial, sans-serif" font-size="11" font-weight="400" text-anchor="middle">9</text>
<line x1="95.00" y1="560.00" x2="955.00" y2="560.00" stroke="#e8e8e8" stroke-width="1.00"/>
<text x="86.00" y="564.00" font-family="Arial, sans-serif" font-size="11" font-weight="400" text-anchor="end">0.00%</text>
<line x1="95.00" y1="466.00" x2="955.00" y2="466.00" stroke="#e8e8e8" stroke-width="1.00"/>
<text x="86.00" y="470.00" font-family="Arial, sans-serif" font-size="11" font-weight="400" text-anchor="end">21.00%</text>
<line x1="95.00" y1="372.00" x2="955.00" y2="372.00" stroke="#e8e8e8" stroke-width="1.00"/>
<text x="86.00" y="376.00" font-family="Arial, sans-serif" font-size="11" font-weight="400" text-anchor="end">42.00%</text>
<line x1="95.00" y1="278.00" x2="955.00" y2="278.00" stroke="#e8e8e8" stroke-width="1.00"/>
<text x="86.00" y="282.00" font-family="Arial, sans-serif" font-size="11" font-weight="400" text-anchor="end">63.00%</text>
<line x1="95.00" y1="184.00" x2="955.00" y2="184.00" stroke="#e8e8e8" stroke-width="1.00"/>
<text x="86.00" y="188.00" font-family="Arial, sans-serif" font-size="11" font-weight="400" text-anchor="end">84.00%</text>
<line x1="95.00" y1="90.00" x2="955.00" y2="90.00" stroke="#e8e8e8" stroke-width="1.00"/>
<text x="86.00" y="94.00" font-family="Arial, sans-serif" font-size="11" font-weight="400" text-anchor="end">105.00%</text>
</svg>
