<svg xmlns="http://www.w3.org/2000/svg" width="900" height="500" viewBox="0 0 900 500">
<rect width="100%" height="100%" fill="#ffffff"/>
<text x="450.0" y="28" text-anchor="middle" font-family="Arial" font-size="18">zmean3: honest actions vs matched attack maxima</text>
<line x1="70" y1="430" x2="870" y2="430" stroke="#333"/>
<line x1="70" y1="55" x2="70" y2="430" stroke="#333"/>
<rect x="74.00" y="55.00" width="19.00" height="375.00" fill="#226f75"/>
<rect x="96.00" y="430.00" width="19.00" height="0.00" fill="#d0634b"/>
<rect x="124.00" y="305.94" width="19.00" height="124.06" fill="#226f75"/>
<rect x="146.00" y="379.26" width="19.00" height="50.74" fill="#d0634b"/>
<rect x="174.00" y="372.50" width="19.00" height="57.50" fill="#226f75"/>
<rect x="196.00" y="417.32" width="19.00" height="12.68" fill="#d0634b"/>
<rect x="224.00" y="397.50" width="19.00" height="32.50" fill="#226f75"/>
<rect x="246.00" y="430.00" width="19.00" height="0.00" fill="#d0634b"/>
<rect x="274.00" y="415.94" width="19.00" height="14.06" fill="#226f75"/>
<rect x="296.00" y="353.89" width="19.00" height="76.11" fill="#d0634b"/>
<rect x="324.00" y="420.00" width="19.00" height="10.00" fill="#226f75"/>
<rect x="346.00" y="379.26" width="19.00" height="50.74" fill="#d0634b"/>
<rect x="374.00" y="425.62" width="19.00" height="4.38" fill="#226f75"/>
<rect x="396.00" y="366.58" width="19.00" height="63.42" fill="#d0634b"/>
<rect x="424.00" y="429.06" width="19.00" height="0.94" fill="#226f75"/>
<rect x="446.00" y="341.21" width="19.00" height="88.79" fill="#d0634b"/>
<rect x="474.00" y="429.38" width="19.00" height="0.62" fill="#226f75"/>
<rect x="496.00" y="379.26" width="19.00" height="50.74" fill="#d0634b"/>
<rect x="524.00" y="429.69" width="19.00" height="0.31" fill="#226f75"/>
<rect x="546.00" y="404.63" width="19.00" height="25.37" fill="#d0634b"/>
<rect x="574.00" y="428.44" width="19.00" height="1.56" fill="#226f75"/>
<rect x="596.00" y="417.32" width="19.00" height="12.68" fill="#d0634b"/>
<rect x="624.00" y="430.00" width="19.00" height="0.00" fill="#226f75"/>
<rect x="646.00" y="341.21" width="19.00" height="88.79" fill="#d0634b"/>
<rect x="674.00" y="429.69" width="19.00" height="0.31" fill="#226f75"/>
<rect x="696.00" y="417.32" width="19.00" height="12.68" fill="#d0634b"/>
<rect x="724.00" y="429.69" width="19.00" height="0.31" fill="#226f75"/>
<rect x="746.00" y="379.26" width="19.00" height="50.74" fill="#d0634b"/>
<rect x="774.00" y="430.00" width="19.00" height="0.00" fill="#226f75"/>
<rect x="796.00" y="417.32" width="19.00" height="12.68" fill="#d0634b"/>
<rect x="824.00" y="430.00" width="19.00" height="0.00" fill="#226f75"/>
<rect x="846.00" y="404.63" width="19.00" height="25.37" fill="#d0634b"/>
<text x="70.00" y="454" text-anchor="middle" font-family="Arial" font-size="12">-0.60</text>
<text x="270.00" y="454" text-anchor="middle" font-family="Arial" font-size="12">1.22</text>
<text x="470.00" y="454" text-anchor="middle" font-family="Arial" font-size="12">3.04</text>
<text x="670.00" y="454" text-anchor="middle" font-family="Arial" font-size="12">4.86</text>
<text x="870.00" y="454" text-anchor="middle" font-family="Arial" font-size="12">6.68</text>
<text x="470.0" y="482" text-anchor="middle" font-family="Arial" font-size="14">Suspicion score</text>
<text x="18" y="242.5" text-anchor="middle" font-family="Arial" font-size="14" transform="rotate(-90 18 242.5)">Share of population</text>
<rect x="670" y="48" width="14" height="14" fill="#226f75"/>
<text x="690" y="60" font-family="Arial" font-size="12">Honest actions</text>
<rect x="780" y="48" width="14" height="14" fill="#d0634b"/>
<text x="800" y="60" font-family="Arial" font-size="12">Attack maxima</text>
</svg>
